PathFileType	4	(X/Y/Z)	C:\Users\86182\Documents\cortex\Trimmed_M3_H15.trc
DataRate	CameraRate	NumFrames	NumMarkers	Units	OrigDataRate	OrigDataStartFrame	OrigNumFrames
100.00	100.00	       112	2	mm	100.00	541	       901
Frame#	Time	gripper			box			
		X1	Y1	Z1	X2	Y2	Z2	

541	5.400	267.74112	173.11679	292.20288	268.16473	170.69798	155.95918	
542	5.410	267.73804	173.11720	292.19806	268.16287	170.69769	155.95912	
543	5.420	267.73639	173.11772	292.19617	268.16074	170.69736	155.95906	
544	5.430	267.73666	173.11809	292.19754	268.15891	170.69708	155.95900	
545	5.440	267.73871	173.11813	292.20166	268.15753	170.69687	155.95895	
546	5.450	267.74176	173.11784	292.20728	268.15643	170.69670	155.95892	
547	5.460	267.74475	173.11742	292.21262	268.15518	170.69650	155.95888	
548	5.470	267.74658	173.11714	292.21600	268.15363	170.69626	155.95883	
549	5.480	267.74655	173.11719	292.21637	268.15198	170.69601	155.95877	
550	5.490	267.74451	173.11758	292.21332	268.15073	170.69582	155.95872	
551	5.500	267.74078	173.11830	292.20752	268.15030	170.69576	155.95871	
552	5.510	267.73621	173.11926	292.20029	268.15094	170.69585	155.95872	
553	5.520	267.73184	173.12032	292.19330	268.15274	170.69612	155.95879	
554	5.530	267.72910	173.12119	292.18851	268.15555	170.69656	155.95888	
555	5.540	267.72913	173.12160	292.18753	268.15900	170.69710	155.95900	
556	5.550	267.73215	173.12149	292.19086	268.16245	170.69763	155.95911	
557	5.560	267.73734	173.12097	292.19763	268.16531	170.69807	155.95918	
558	5.570	267.74335	173.12024	292.20609	268.16736	170.69839	155.95926	
559	5.580	267.74893	173.11934	292.21432	268.16837	170.69855	155.95929	
560	5.590	267.75317	173.11833	292.22086	268.16797	170.69849	155.95927	
561	5.600	267.75555	173.11734	292.22470	268.16599	170.69818	155.95921	
562	5.610	267.75586	173.11649	292.22543	268.16266	170.69766	155.95911	
563	5.620	267.75424	173.11588	292.22327	268.15884	170.69708	155.95898	
564	5.630	267.75119	173.11548	292.21906	268.15549	170.69655	155.95889	
565	5.640	267.74759	173.11528	292.21417	268.15329	170.69621	155.95882	
566	5.650	267.74435	173.11533	292.20990	268.15265	170.69612	155.95880	
567	5.660	267.74216	173.11571	292.20691	268.15359	170.69626	155.95882	
568	5.670	267.74115	173.11641	292.20538	268.15601	170.69664	155.95889	
569	5.680	267.74118	173.11734	292.20508	268.15945	170.69716	155.95900	
570	5.690	267.74179	173.11830	292.20554	268.16321	170.69775	155.95912	
571	5.700	267.74246	173.11914	292.20624	268.16626	170.69823	155.95921	
572	5.710	267.74277	173.11977	292.20679	268.16751	170.69841	155.95926	
573	5.720	267.74258	173.12003	292.20679	268.16644	170.69826	155.95921	
574	5.730	267.74213	173.11987	292.20636	268.16360	170.69781	155.95914	
575	5.740	267.74191	173.11943	292.20642	268.16022	170.69730	155.95901	
576	5.750	267.74249	173.11890	292.20795	268.15768	170.69690	155.95894	
577	5.760	267.74408	173.11842	292.21127	268.15677	170.69675	155.95892	
578	5.770	267.74652	173.11800	292.21606	268.15778	170.69690	155.95895	
579	5.780	267.74948	173.11758	292.22165	268.16049	170.69733	155.95903	
580	5.790	267.75256	173.11719	292.22699	268.16452	170.69795	155.95915	
581	5.800	267.75504	173.11691	292.23077	268.16946	170.69872	155.95930	
582	5.810	267.75616	173.11694	292.23175	268.17480	170.69954	155.95947	
583	5.820	267.75580	173.11732	292.22980	268.18005	170.70036	155.95964	
584	5.830	267.75439	173.11810	292.22589	268.18466	170.70108	155.95978	
585	5.840	267.75275	173.11917	292.22186	268.18826	170.70163	155.95990	
586	5.850	267.75156	173.12036	292.21918	268.19073	170.70201	155.95998	
587	5.860	267.75116	173.12146	292.21838	268.19238	170.70227	155.96002	
588	5.870	267.75156	173.12238	292.21948	268.19357	170.70245	155.96005	
589	5.880	267.75266	173.12320	292.22226	268.19388	170.70250	155.96007	
590	5.890	267.75406	173.12398	292.22595	268.19226	170.70226	155.96002	
591	5.900	267.75507	173.12450	292.22922	268.18808	170.70160	155.95988	
592	5.910	267.75516	173.12427	292.23080	268.18179	170.70062	155.95969	
593	5.920	267.75458	173.12317	292.23090	268.17462	170.69951	155.95947	
594	5.930	267.75412	173.12149	292.23059	268.16800	170.69849	155.95926	
595	5.940	267.75424	173.11969	292.23093	268.16309	170.69772	155.95911	
596	5.950	267.75516	173.11815	292.23206	268.16058	170.69734	155.95901	
597	5.960	267.75671	173.11707	292.23392	268.16068	170.69736	155.95903	
598	5.970	267.75885	173.11646	292.23624	268.16315	170.69774	155.95911	
599	5.980	267.76132	173.11621	292.23877	268.16769	170.69844	155.95926	
600	5.990	267.76376	173.11629	292.24109	268.17392	170.69942	155.95944	
601	6.000	267.76590	173.11668	292.24292	268.18130	170.70055	155.95967	
602	6.010	267.76730	173.11736	292.24365	268.18875	170.70171	155.95990	
603	6.020	267.76764	173.11819	292.24292	268.19467	170.70262	155.96008	
604	6.030	267.76663	173.11913	292.24042	268.19754	170.70306	155.96017	
605	6.040	267.76431	173.12003	292.23648	268.19629	170.70288	155.96013	
606	6.050	267.76111	173.12090	292.23206	268.19104	170.70206	155.95998	
607	6.060	267.75778	173.12180	292.22845	268.18311	170.70084	155.95973	
608	6.070	267.75537	173.12277	292.22717	268.17444	170.69949	155.95947	
609	6.080	267.75449	173.12378	292.22894	268.16663	170.69827	155.95923	
610	6.090	267.75522	173.12460	292.23340	268.16031	170.69730	155.95905	
611	6.100	267.75723	173.12497	292.23950	268.15552	170.69656	155.95889	
612	6.110	267.75983	173.12476	292.24573	268.15201	170.69601	155.95879	
613	6.120	267.76236	173.12402	292.25064	268.14954	170.69563	155.95871	
614	6.130	267.76431	173.12289	292.25323	268.14795	170.69539	155.95865	
615	6.140	267.76541	173.12157	292.25333	268.14700	170.69524	155.95863	
616	6.150	267.76572	173.12022	292.25125	268.14661	170.69518	155.95862	
617	6.160	267.76541	173.11913	292.24777	268.14651	170.69516	155.95860	
618	6.170	267.76483	173.11841	292.24377	268.14661	170.69518	155.95859	
619	6.180	267.76440	173.11810	292.24023	268.14679	170.69521	155.95860	
620	6.190	267.76465	173.11809	292.23828	268.14697	170.69524	155.95862	
621	6.200	267.76593	173.11826	292.23914	268.14713	170.69527	155.95862	
622	6.210	267.76834	173.11855	292.24304	268.14725	170.69528	155.95862	
623	6.220	267.77142	173.11893	292.24915	268.14734	170.69530	155.95862	
624	6.230	267.77423	173.11932	292.25558	268.14737	170.69530	155.95862	
625	6.240	267.77579	173.11969	292.26035	268.14740	170.69530	155.95863	
626	6.250	267.77542	173.12004	292.26196	268.14740	170.69531	155.95863	
627	6.260	267.77310	173.12048	292.25995	268.14740	170.69530	155.95863	
628	6.270	267.76917	173.12112	292.25488	268.14740	170.69530	155.95863	
629	6.280	267.76422	173.12202	292.24768	268.14740	170.69530	155.95862	
630	6.290	267.75870	173.12312	292.23914	268.14737	170.69530	155.95862	
631	6.300	267.75299	173.12431	292.22968	268.14737	170.69530	155.95863	
632	6.310	267.74759	173.12543	292.22015	268.14737	170.69530	155.95863	
633	6.320	267.74323	173.12633	292.21191	268.14737	170.69530	155.95865	
634	6.330	267.74066	173.12692	292.20660	268.14737	170.69530	155.95863	
635	6.340	267.74069	173.12711	292.20560	268.14737	170.69530	155.95863	
636	6.350	267.74350	173.12683	292.20929	268.14737	170.69530	155.95863	
637	6.360	267.74878	173.12614	292.21716	268.14737	170.69530	155.95865	
638	6.370	267.75562	173.12520	292.22791	268.14737	170.69530	155.95865	
639	6.380	267.76282	173.12419	292.23962	268.14737	170.69530	155.95865	
640	6.390	267.76913	173.12326	292.25043	268.14737	170.69530	155.95863	
641	6.400	267.77359	173.12248	292.25870	268.14737	170.69530	155.95862	
642	6.410	267.77579	173.12181	292.26367	268.14737	170.69530	155.95862	
643	6.420	267.77594	173.12117	292.26514	268.14737	170.69530	155.95862	
644	6.430	267.77444	173.12045	292.26343	268.14737	170.69530	155.95863	
645	6.440	267.77185	173.11963	292.25897	268.14737	170.69530	155.95865	
646	6.450	267.76868	173.11890	292.25266	268.14737	170.69530	155.95865	
647	6.460	267.76538	173.11848	292.24567	268.14737	170.69530	155.95863	
648	6.470	267.76236	173.11856	292.23926	268.14737	170.69530	155.95863	
649	6.480	267.75998	173.11916	292.23447	268.14737	170.69530	155.95863	
650	6.490	267.75836	173.12015	292.23163	268.14737	170.69530	155.95862	
651	6.500	267.75723	173.12129	292.23035	268.14737	170.69530	155.95863	
652	6.510	267.75653	173.12234	292.23016	268.14737	170.69530	155.95863	
